HIERARCHY
ROOT Hips
{
    OFFSET 0.000000 0.000000 0.000000
    CHANNELS 6 Xposition Yposition Zposition Zrotation Xrotation Yrotation
    JOINT Spine
    {
        OFFSET -0.000000 7.750029 0.000000
        CHANNELS 3 Zrotation Xrotation Yrotation
        JOINT Spine1
        {
            OFFSET -0.000000 19.767460 0.000000
            CHANNELS 3 Zrotation Xrotation Yrotation
            JOINT Neck
            {
                OFFSET -0.000000 19.686279 1.789662
                CHANNELS 3 Zrotation Xrotation Yrotation
                JOINT Head
                {
                    OFFSET -0.000000 13.231757 -1.890251
                    CHANNELS 3 Zrotation Xrotation Yrotation
                    End Site
                    {
                        OFFSET -0.000000 23.628138 0.000000
                    }
                }
            }
            JOINT LeftShoulder
            {
                OFFSET 3.736819 16.910755 -0.280982
                CHANNELS 3 Zrotation Xrotation Yrotation
                JOINT LeftArm
                {
                    OFFSET 13.626117 0.000000 0.000000
                    CHANNELS 3 Zrotation Xrotation Yrotation
                    JOINT LeftForeArm
                    {
                        OFFSET 31.364786 0.000000 0.000000
                        CHANNELS 3 Zrotation Xrotation Yrotation
                        JOINT LeftHand
                        {
                            OFFSET 23.389509 0.000000 0.000000
                            CHANNELS 3 Zrotation Xrotation Yrotation
                            End Site
                            {
                                OFFSET 14.176883 0.000000 0.000000
                            }
                        }
                    }
                }
            }
            JOINT RightShoulder
            {
                OFFSET -3.821718 16.910755 -0.280982
                CHANNELS 3 Zrotation Xrotation Yrotation
                JOINT RightArm
                {
                    OFFSET -13.626117 0.000000 0.000000
                    CHANNELS 3 Zrotation Xrotation Yrotation
                    JOINT RightForeArm
                    {
                        OFFSET -31.364786 0.000000 0.000000
                        CHANNELS 3 Zrotation Xrotation Yrotation
                        JOINT RightHand
                        {
                            OFFSET -23.389509 0.000000 0.000000
                            CHANNELS 3 Zrotation Xrotation Yrotation
                            End Site
                            {
                                OFFSET -14.176883 0.000000 0.000000
                            }
                        }
                    }
                }
            }
        }
    }
    JOINT LeftUpLeg
    {
        OFFSET 9.451255 0.000000 0.000000
        CHANNELS 3 Zrotation Xrotation Yrotation
        JOINT LeftLeg
        {
            OFFSET -0.000000 -41.898624 0.000000
            CHANNELS 3 Zrotation Xrotation Yrotation
            JOINT LeftFoot
            {
                OFFSET -0.000000 -38.481331 0.000000
                CHANNELS 3 Zrotation Xrotation Yrotation
                JOINT LeftToeBase
                {
                    OFFSET -0.000000 -6.143315 14.176883
                    CHANNELS 3 Zrotation Xrotation Yrotation
                    End Site
                    {
                        OFFSET -0.000000 0.000000 3.780502
                    }
                }
            }
        }
    }
    JOINT RightUpLeg
    {
        OFFSET -9.451255 0.000000 0.000000
        CHANNELS 3 Zrotation Xrotation Yrotation
        JOINT RightLeg
        {
            OFFSET -0.000000 -41.898624 0.000000
            CHANNELS 3 Zrotation Xrotation Yrotation
            JOINT RightFoot
            {
                OFFSET -0.000000 -38.481331 0.000000
                CHANNELS 3 Zrotation Xrotation Yrotation
                JOINT RightToeBase
                {
                    OFFSET -0.000000 -6.143315 14.176883
                    CHANNELS 3 Zrotation Xrotation Yrotation
                    End Site
                    {
                        OFFSET -0.000000 0.000000 3.780502
                    }
                }
            }
        }
    }
}
MOTION
Frames:    4
Frame Time:    0.010000
0.188210    89.552597    37.923843    -0.941324    1.811004    174.621643    0.789310    -2.379818    3.141057    -1.908306    2.529346    3.166814    -5.935505    39.662552    3.509222    1.811993    -32.014545    2.977333    7.926363    5.236047    -2.817292    -79.913063    40.672756    -1.373438    4.561700    -8.452106    -0.877942    -20.757797    -7.811070    -3.343583    -7.748516    10.204109    -0.296172    73.343109    43.152264    13.874474    -4.718750    -13.448285    10.143236    13.238206    -13.129277    -0.786603    2.558643    -11.087793    -3.023650    -4.333523    14.330325    2.367931    0.315266    -3.610587    15.516925    0.000000    0.000000    0.000000    -7.365465    5.550609    1.948501    3.173602    42.382172    4.415007    -0.330788    6.018536    -5.692405    0.000000    0.000000    0.000000    
-0.000643    89.641068    36.956486    -0.936721    1.741310    174.240631    0.455018    -2.323144    3.087023    -1.619359    2.412966    3.111909    -5.769207    39.722294    3.694319    1.631373    -32.262512    3.134461    8.140755    4.899545    -3.054222    -80.069069    41.180756    -1.530348    4.747710    -9.773656    -2.370049    -19.364878    -9.553858    -0.730827    -7.592068    10.185805    -0.364896    72.941910    43.290863    13.912306    -4.522286    -12.728205    9.970831    13.201503    -12.368134    -0.223498    2.489303    -10.247551    -1.371880    -4.074330    14.002834    0.759816    0.468609    -4.119169    15.930739    0.000000    0.000000    0.000000    -7.506981    3.375940    3.027841    4.318748    45.456741    5.370375    -0.079684    6.921838    -8.451422    0.000000    0.000000    0.000000    
-0.167429    89.691597    35.988300    -0.949049    1.720512    173.811356    0.068516    -2.229055    3.000069    -1.335429    2.331506    3.025906    -6.296074    39.461475    4.019228    2.700286    -32.057301    3.802820    8.407720    4.523515    -3.221463    -80.228027    42.707355    -1.465019    6.284233    -10.733288    -3.618429    -22.027517    -10.591589    0.280223    -7.341061    10.092502    -0.325326    72.708305    43.386307    13.689093    -4.381733    -13.070671    10.755973    11.845608    -12.852767    -1.823176    2.448291    -9.277497    0.094533    -3.947629    13.571353    -0.671626    0.734425    -4.771584    16.363760    0.000000    0.000000    0.000000    -7.541816    1.256256    4.572799    6.049611    48.584175    6.091155    -0.101282    6.035079    -12.011757    0.000000    0.000000    0.000000    
-0.296903    89.732254    35.046410    -0.993527    1.643258    173.517838    -0.385114    -2.240888    2.892082    -0.873362    2.334632    2.917449    -5.827711    39.484180    4.149516    1.657991    -32.252987    3.619766    8.450724    3.988467    -3.532781    -79.988014    42.815342    -1.674901    6.182897    -10.896157    -3.801982    -21.258682    -10.179282    -2.790084    -7.318261    10.149381    -0.378321    72.185791    43.610165    14.060189    -4.722437    -13.220864    10.395370    13.393951    -12.864333    -0.544175    2.432917    -8.408017    1.406637    -4.005206    13.209676    -1.921468    1.081607    -5.504179    16.583054    0.000000    0.000000    0.000000    -7.413102    -0.921177    5.709705    7.662588    51.893143    7.518227    -0.846303    3.715605    -15.524455    0.000000    0.000000    0.000000    
